<mxfile host="app.diagrams.net" modified="2023-05-28T07:38:02.641Z" agent="Mozilla/5.0 (Macintosh; Intel Mac OS X 10_15_7) AppleWebKit/605.1.15 (KHTML, like Gecko) Version/16.4 Safari/605.1.15" etag="yZGRIB9Shewtknli4Zsv" version="21.3.4" type="github">
  <diagram name="페이지-1" id="KOplwi7PBUoRrbzAXxw8">
    <mxGraphModel dx="954" dy="647" grid="1" gridSize="10" guides="1" tooltips="1" connect="1" arrows="1" fold="1" page="1" pageScale="1" pageWidth="827" pageHeight="1169" math="0" shadow="0">
      <root>
        <mxCell id="0" />
        <mxCell id="1" parent="0" />
        <mxCell id="bs0dqh3NDXS-HJATd6sE-3" value="map&amp;lt;char, int&amp;gt; mapping = { { &#39;N&#39;, 0 }, { &#39;S&#39;, 1 }, { &#39;W&#39;, 2 }, { &#39;E&#39;, 3 } };" style="rounded=0;whiteSpace=wrap;html=1;" vertex="1" parent="1">
          <mxGeometry x="320" y="150" width="160" height="80" as="geometry" />
        </mxCell>
        <mxCell id="bs0dqh3NDXS-HJATd6sE-4" value="" style="endArrow=classic;html=1;rounded=0;exitX=0.5;exitY=1;exitDx=0;exitDy=0;" edge="1" parent="1" source="bs0dqh3NDXS-HJATd6sE-3">
          <mxGeometry width="50" height="50" relative="1" as="geometry">
            <mxPoint x="390" y="310" as="sourcePoint" />
            <mxPoint x="400" y="270" as="targetPoint" />
          </mxGeometry>
        </mxCell>
        <mxCell id="bs0dqh3NDXS-HJATd6sE-5" value="" style="edgeStyle=orthogonalEdgeStyle;rounded=0;orthogonalLoop=1;jettySize=auto;html=1;" edge="1" parent="1" source="bs0dqh3NDXS-HJATd6sE-6">
          <mxGeometry relative="1" as="geometry">
            <mxPoint x="400" y="510" as="targetPoint" />
          </mxGeometry>
        </mxCell>
        <mxCell id="bs0dqh3NDXS-HJATd6sE-6" value="box moveD[4] = {{-1, 0}, {1, 0}, {0, -1}, {0, 1}};" style="rounded=0;whiteSpace=wrap;html=1;" vertex="1" parent="1">
          <mxGeometry x="320" y="400" width="160" height="80" as="geometry" />
        </mxCell>
        <mxCell id="bs0dqh3NDXS-HJATd6sE-7" value="" style="edgeStyle=orthogonalEdgeStyle;rounded=0;orthogonalLoop=1;jettySize=auto;html=1;" edge="1" parent="1" source="bs0dqh3NDXS-HJATd6sE-8" target="bs0dqh3NDXS-HJATd6sE-6">
          <mxGeometry relative="1" as="geometry" />
        </mxCell>
        <mxCell id="bs0dqh3NDXS-HJATd6sE-8" value="typedef struct{&#xa;    int x,y;&#xa;}box;" style="shape=hexagon;perimeter=hexagonPerimeter2;whiteSpace=wrap;html=1;fixedSize=1;" vertex="1" parent="1">
          <mxGeometry x="320" y="280" width="160" height="80" as="geometry" />
        </mxCell>
        <mxCell id="bs0dqh3NDXS-HJATd6sE-9" style="edgeStyle=orthogonalEdgeStyle;rounded=0;orthogonalLoop=1;jettySize=auto;html=1;exitX=0.5;exitY=1;exitDx=0;exitDy=0;" edge="1" parent="1" source="bs0dqh3NDXS-HJATd6sE-10">
          <mxGeometry relative="1" as="geometry">
            <mxPoint x="400" y="630" as="targetPoint" />
          </mxGeometry>
        </mxCell>
        <mxCell id="bs0dqh3NDXS-HJATd6sE-10" value="vector&lt;int&gt; solution(vector&lt;string&gt; park, vector&lt;string&gt; routes) {&#xa;    vector&lt;int&gt; answer;&#xa;    pair&lt;int, int&gt; loc;" style="shape=hexagon;perimeter=hexagonPerimeter2;whiteSpace=wrap;html=1;fixedSize=1;" vertex="1" parent="1">
          <mxGeometry x="310" y="520" width="180" height="80" as="geometry" />
        </mxCell>
        <mxCell id="bs0dqh3NDXS-HJATd6sE-11" style="edgeStyle=orthogonalEdgeStyle;rounded=0;orthogonalLoop=1;jettySize=auto;html=1;exitX=0.5;exitY=1;exitDx=0;exitDy=0;" edge="1" parent="1" source="bs0dqh3NDXS-HJATd6sE-12">
          <mxGeometry relative="1" as="geometry">
            <mxPoint x="400" y="730" as="targetPoint" />
          </mxGeometry>
        </mxCell>
        <mxCell id="bs0dqh3NDXS-HJATd6sE-12" value="int H = park.size();&#xa;    int W = park[0].size();" style="rounded=0;whiteSpace=wrap;html=1;" vertex="1" parent="1">
          <mxGeometry x="320" y="640" width="160" height="60" as="geometry" />
        </mxCell>
        <mxCell id="bs0dqh3NDXS-HJATd6sE-13" value="int i=0; &amp;nbsp; &amp;nbsp; i&amp;lt;H; i++" style="swimlane;whiteSpace=wrap;html=1;startSize=30;align=center;" vertex="1" parent="1">
          <mxGeometry x="120" y="740" width="560" height="310" as="geometry">
            <mxRectangle x="300" y="690" width="130" height="30" as="alternateBounds" />
          </mxGeometry>
        </mxCell>
        <mxCell id="bs0dqh3NDXS-HJATd6sE-14" value="int j=0; &amp;nbsp; &amp;nbsp; &amp;nbsp;j&amp;lt;W; j++" style="swimlane;whiteSpace=wrap;html=1;startSize=30;" vertex="1" parent="bs0dqh3NDXS-HJATd6sE-13">
          <mxGeometry x="40" y="70" width="480" height="210" as="geometry" />
        </mxCell>
        <mxCell id="bs0dqh3NDXS-HJATd6sE-15" style="edgeStyle=orthogonalEdgeStyle;rounded=0;orthogonalLoop=1;jettySize=auto;html=1;exitX=0.5;exitY=1;exitDx=0;exitDy=0;" edge="1" parent="bs0dqh3NDXS-HJATd6sE-14" source="bs0dqh3NDXS-HJATd6sE-16">
          <mxGeometry relative="1" as="geometry">
            <mxPoint x="240" y="280" as="targetPoint" />
          </mxGeometry>
        </mxCell>
        <mxCell id="bs0dqh3NDXS-HJATd6sE-16" value="park[i][j] == &#39;S&#39;" style="rhombus;whiteSpace=wrap;html=1;" vertex="1" parent="bs0dqh3NDXS-HJATd6sE-14">
          <mxGeometry x="177.5" y="50" width="125" height="110" as="geometry" />
        </mxCell>
        <mxCell id="bs0dqh3NDXS-HJATd6sE-17" value="" style="endArrow=classic;html=1;rounded=0;entryX=0.5;entryY=0;entryDx=0;entryDy=0;exitX=0.5;exitY=0;exitDx=0;exitDy=0;" edge="1" parent="bs0dqh3NDXS-HJATd6sE-14" source="bs0dqh3NDXS-HJATd6sE-14" target="bs0dqh3NDXS-HJATd6sE-16">
          <mxGeometry width="50" height="50" relative="1" as="geometry">
            <mxPoint x="240" y="10" as="sourcePoint" />
            <mxPoint x="240" y="50" as="targetPoint" />
          </mxGeometry>
        </mxCell>
        <mxCell id="bs0dqh3NDXS-HJATd6sE-18" value="loc = {i,j};&lt;br&gt;&amp;nbsp;break;" style="rounded=0;whiteSpace=wrap;html=1;" vertex="1" parent="bs0dqh3NDXS-HJATd6sE-14">
          <mxGeometry x="330" y="75" width="120" height="65" as="geometry" />
        </mxCell>
        <mxCell id="bs0dqh3NDXS-HJATd6sE-19" value="Y" style="text;html=1;strokeColor=none;fillColor=none;align=center;verticalAlign=middle;whiteSpace=wrap;rounded=0;" vertex="1" parent="bs0dqh3NDXS-HJATd6sE-14">
          <mxGeometry x="280" y="75" width="60" height="30" as="geometry" />
        </mxCell>
        <mxCell id="bs0dqh3NDXS-HJATd6sE-20" value="" style="endArrow=classic;html=1;rounded=0;entryX=0.5;entryY=0;entryDx=0;entryDy=0;" edge="1" parent="bs0dqh3NDXS-HJATd6sE-13" source="bs0dqh3NDXS-HJATd6sE-13" target="bs0dqh3NDXS-HJATd6sE-14">
          <mxGeometry width="50" height="50" relative="1" as="geometry">
            <mxPoint x="280" y="40" as="sourcePoint" />
            <mxPoint x="240" y="130" as="targetPoint" />
          </mxGeometry>
        </mxCell>
        <mxCell id="bs0dqh3NDXS-HJATd6sE-21" value="" style="endArrow=classic;html=1;rounded=0;exitX=1;exitY=0.5;exitDx=0;exitDy=0;" edge="1" parent="1" source="bs0dqh3NDXS-HJATd6sE-16">
          <mxGeometry width="50" height="50" relative="1" as="geometry">
            <mxPoint x="390" y="1030" as="sourcePoint" />
            <mxPoint x="490" y="915" as="targetPoint" />
          </mxGeometry>
        </mxCell>
        <mxCell id="bs0dqh3NDXS-HJATd6sE-22" value="" style="endArrow=none;html=1;rounded=0;entryX=0.5;entryY=1;entryDx=0;entryDy=0;" edge="1" parent="1" target="bs0dqh3NDXS-HJATd6sE-18">
          <mxGeometry width="50" height="50" relative="1" as="geometry">
            <mxPoint x="400" y="990" as="sourcePoint" />
            <mxPoint x="440" y="950" as="targetPoint" />
            <Array as="points">
              <mxPoint x="550" y="990" />
            </Array>
          </mxGeometry>
        </mxCell>
        <mxCell id="bs0dqh3NDXS-HJATd6sE-23" value="const auto &amp;amp; route:routes" style="swimlane;whiteSpace=wrap;html=1;" vertex="1" parent="1">
          <mxGeometry x="40" y="1110" width="760" height="540" as="geometry" />
        </mxCell>
        <mxCell id="bs0dqh3NDXS-HJATd6sE-24" value="char op = mapping[route[0]];&#xa;        int n = route[2] - 48;&#xa;        &#xa;        int nx = loc.first;&#xa;        int ny = loc.second;" style="rounded=0;whiteSpace=wrap;html=1;" vertex="1" parent="bs0dqh3NDXS-HJATd6sE-23">
          <mxGeometry x="260" y="70" width="200" height="90" as="geometry" />
        </mxCell>
        <mxCell id="bs0dqh3NDXS-HJATd6sE-25" value="n--" style="swimlane;whiteSpace=wrap;html=1;" vertex="1" parent="bs0dqh3NDXS-HJATd6sE-23">
          <mxGeometry x="134" y="210" width="506" height="310" as="geometry" />
        </mxCell>
        <mxCell id="bs0dqh3NDXS-HJATd6sE-26" value="" style="endArrow=classic;html=1;rounded=0;" edge="1" parent="bs0dqh3NDXS-HJATd6sE-25">
          <mxGeometry width="50" height="50" relative="1" as="geometry">
            <mxPoint x="240" y="30" as="sourcePoint" />
            <mxPoint x="239.5" y="60" as="targetPoint" />
          </mxGeometry>
        </mxCell>
        <mxCell id="bs0dqh3NDXS-HJATd6sE-27" value="&lt;div&gt;nx += moveD[op].x;&lt;/div&gt;&lt;div&gt;&amp;nbsp;ny += moveD[op].y;&lt;/div&gt;" style="rounded=0;whiteSpace=wrap;html=1;" vertex="1" parent="bs0dqh3NDXS-HJATd6sE-25">
          <mxGeometry x="160" y="70" width="160" height="60" as="geometry" />
        </mxCell>
        <mxCell id="bs0dqh3NDXS-HJATd6sE-28" value="(nx &amp;lt; 0 || H &amp;lt;= nx || ny &amp;lt; 0 || W &amp;lt;= ny) ||&lt;br&gt;&amp;nbsp;park [nx][ny]==&#39;X&#39;)" style="rhombus;whiteSpace=wrap;html=1;" vertex="1" parent="bs0dqh3NDXS-HJATd6sE-25">
          <mxGeometry x="120" y="160" width="240" height="120" as="geometry" />
        </mxCell>
        <mxCell id="bs0dqh3NDXS-HJATd6sE-29" style="edgeStyle=orthogonalEdgeStyle;rounded=0;orthogonalLoop=1;jettySize=auto;html=1;exitX=0.5;exitY=1;exitDx=0;exitDy=0;" edge="1" parent="bs0dqh3NDXS-HJATd6sE-25" source="bs0dqh3NDXS-HJATd6sE-27" target="bs0dqh3NDXS-HJATd6sE-28">
          <mxGeometry relative="1" as="geometry">
            <mxPoint x="240" y="160" as="targetPoint" />
          </mxGeometry>
        </mxCell>
        <mxCell id="bs0dqh3NDXS-HJATd6sE-30" value="break;" style="rounded=0;whiteSpace=wrap;html=1;" vertex="1" parent="bs0dqh3NDXS-HJATd6sE-25">
          <mxGeometry x="386" y="190" width="114" height="60" as="geometry" />
        </mxCell>
        <mxCell id="bs0dqh3NDXS-HJATd6sE-31" value="" style="endArrow=classic;html=1;rounded=0;exitX=0.471;exitY=0.004;exitDx=0;exitDy=0;exitPerimeter=0;" edge="1" parent="1" source="bs0dqh3NDXS-HJATd6sE-23">
          <mxGeometry width="50" height="50" relative="1" as="geometry">
            <mxPoint x="400" y="1140" as="sourcePoint" />
            <mxPoint x="398" y="1170" as="targetPoint" />
            <Array as="points">
              <mxPoint x="398" y="1150" />
            </Array>
          </mxGeometry>
        </mxCell>
        <mxCell id="bs0dqh3NDXS-HJATd6sE-32" value="" style="endArrow=classic;html=1;rounded=0;exitX=0.5;exitY=1;exitDx=0;exitDy=0;" edge="1" parent="1">
          <mxGeometry width="50" height="50" relative="1" as="geometry">
            <mxPoint x="413" y="1270" as="sourcePoint" />
            <mxPoint x="413" y="1310" as="targetPoint" />
            <Array as="points">
              <mxPoint x="413" y="1290" />
            </Array>
          </mxGeometry>
        </mxCell>
        <mxCell id="bs0dqh3NDXS-HJATd6sE-33" value="" style="endArrow=classic;html=1;rounded=0;exitX=1;exitY=0.5;exitDx=0;exitDy=0;" edge="1" parent="1" source="bs0dqh3NDXS-HJATd6sE-28">
          <mxGeometry width="50" height="50" relative="1" as="geometry">
            <mxPoint x="370" y="1590" as="sourcePoint" />
            <mxPoint x="560" y="1540" as="targetPoint" />
          </mxGeometry>
        </mxCell>
        <mxCell id="bs0dqh3NDXS-HJATd6sE-34" style="edgeStyle=orthogonalEdgeStyle;rounded=0;orthogonalLoop=1;jettySize=auto;html=1;entryX=0.5;entryY=0;entryDx=0;entryDy=0;" edge="1" parent="1" source="bs0dqh3NDXS-HJATd6sE-28">
          <mxGeometry relative="1" as="geometry">
            <mxPoint x="414" y="1684" as="targetPoint" />
          </mxGeometry>
        </mxCell>
        <mxCell id="bs0dqh3NDXS-HJATd6sE-35" value="" style="endArrow=classic;html=1;rounded=0;exitX=0.5;exitY=1;exitDx=0;exitDy=0;entryX=0.5;entryY=0;entryDx=0;entryDy=0;" edge="1" parent="1" target="bs0dqh3NDXS-HJATd6sE-36">
          <mxGeometry width="50" height="50" relative="1" as="geometry">
            <mxPoint x="414" y="1860" as="sourcePoint" />
            <mxPoint x="414" y="1930" as="targetPoint" />
          </mxGeometry>
        </mxCell>
        <mxCell id="bs0dqh3NDXS-HJATd6sE-36" value="return {loc.first, loc.second};" style="shape=parallelogram;perimeter=parallelogramPerimeter;whiteSpace=wrap;html=1;fixedSize=1;" vertex="1" parent="1">
          <mxGeometry x="300" y="1940" width="230" height="60" as="geometry" />
        </mxCell>
        <mxCell id="bs0dqh3NDXS-HJATd6sE-39" style="edgeStyle=orthogonalEdgeStyle;rounded=0;orthogonalLoop=1;jettySize=auto;html=1;exitX=0.5;exitY=1;exitDx=0;exitDy=0;" edge="1" parent="1" source="bs0dqh3NDXS-HJATd6sE-40">
          <mxGeometry relative="1" as="geometry">
            <mxPoint x="415" y="1790" as="targetPoint" />
          </mxGeometry>
        </mxCell>
        <mxCell id="bs0dqh3NDXS-HJATd6sE-40" value="n&amp;lt;0" style="rhombus;whiteSpace=wrap;html=1;" vertex="1" parent="1">
          <mxGeometry x="330" y="1690" width="170" height="80" as="geometry" />
        </mxCell>
        <mxCell id="bs0dqh3NDXS-HJATd6sE-41" value="loc={nx, ny};" style="rounded=0;whiteSpace=wrap;html=1;" vertex="1" parent="1">
          <mxGeometry x="330" y="1800" width="180" height="60" as="geometry" />
        </mxCell>
        <mxCell id="bs0dqh3NDXS-HJATd6sE-42" value="Y" style="text;html=1;strokeColor=none;fillColor=none;align=center;verticalAlign=middle;whiteSpace=wrap;rounded=0;" vertex="1" parent="1">
          <mxGeometry x="370" y="1860" width="60" height="30" as="geometry" />
        </mxCell>
      </root>
    </mxGraphModel>
  </diagram>
</mxfile>
